<?xml version="1.0" encoding="UTF-8" standalone="no"?>
<!-- Created with Inkscape (http://www.inkscape.org/) -->

<svg
   xmlns:osb="http://www.openswatchbook.org/uri/2009/osb"
   xmlns:dc="http://purl.org/dc/elements/1.1/"
   xmlns:cc="http://creativecommons.org/ns#"
   xmlns:rdf="http://www.w3.org/1999/02/22-rdf-syntax-ns#"
   xmlns:svg="http://www.w3.org/2000/svg"
   xmlns="http://www.w3.org/2000/svg"
   xmlns:sodipodi="http://sodipodi.sourceforge.net/DTD/sodipodi-0.dtd"
   xmlns:inkscape="http://www.inkscape.org/namespaces/inkscape"
   width="29.871933"
   height="29.291462"
   id="svg2985"
   version="1.1"
   inkscape:version="0.48.3.1 r9886"
   sodipodi:docname="Entwurf.svg"
   inkscape:export-filename="/home/martin/Dokumente/Programmierung/LecoS/icons/img_EdgeExtract.png"
   inkscape:export-xdpi="92.177032"
   inkscape:export-ydpi="92.177032">
  <defs
     id="defs2987">
    <linearGradient
       inkscape:collect="always"
       id="linearGradient3876"
       osb:paint="gradient">
      <stop
         style="stop-color:#000000;stop-opacity:1;"
         offset="0"
         id="stop3878" />
      <stop
         style="stop-color:#000000;stop-opacity:0;"
         offset="1"
         id="stop3880" />
    </linearGradient>
    <inkscape:path-effect
       effect="spiro"
       id="path-effect3048"
       is_visible="true" />
    <inkscape:path-effect
       effect="spiro"
       id="path-effect3044"
       is_visible="true" />
    <inkscape:path-effect
       effect="spiro"
       id="path-effect3021"
       is_visible="true" />
    <inkscape:path-effect
       effect="spiro"
       id="path-effect3017"
       is_visible="true" />
    <inkscape:path-effect
       effect="spiro"
       id="path-effect3021-0"
       is_visible="true" />
    <inkscape:path-effect
       effect="spiro"
       id="path-effect3044-0"
       is_visible="true" />
  </defs>
  <sodipodi:namedview
     id="base"
     pagecolor="#ffffff"
     bordercolor="#666666"
     borderopacity="1.0"
     inkscape:pageopacity="0.0"
     inkscape:pageshadow="2"
     inkscape:zoom="16.21875"
     inkscape:cx="18.30195"
     inkscape:cy="13.329214"
     inkscape:current-layer="layer1"
     showgrid="true"
     inkscape:grid-bbox="true"
     inkscape:document-units="px"
     inkscape:snap-bbox="false"
     inkscape:window-width="1024"
     inkscape:window-height="741"
     inkscape:window-x="0"
     inkscape:window-y="0"
     inkscape:window-maximized="1"
     inkscape:snap-global="false"
     fit-margin-top="0"
     fit-margin-left="0"
     fit-margin-right="0"
     fit-margin-bottom="0">
    <inkscape:grid
       type="xygrid"
       id="grid3929"
       empspacing="5"
       visible="true"
       enabled="true"
       snapvisiblegridlinesonly="true"
       originx="-1.3395486px"
       originy="-1.3395305px" />
  </sodipodi:namedview>
  <metadata
     id="metadata2990">
    <rdf:RDF>
      <cc:Work
         rdf:about="">
        <dc:format>image/svg+xml</dc:format>
        <dc:type
           rdf:resource="http://purl.org/dc/dcmitype/StillImage" />
        <dc:title></dc:title>
      </cc:Work>
    </rdf:RDF>
  </metadata>
  <g
     id="layer1"
     inkscape:label="Layer 1"
     inkscape:groupmode="layer"
     transform="translate(-1.3395486,-1.3689886)">
    <rect
       style="fill:#e6e6e6"
       id="rect3013-3"
       width="14.556428"
       height="14.288518"
       x="16.655054"
       y="16.371933" />
    <rect
       style="fill:#e6e6e6"
       id="rect3013"
       width="14.556428"
       height="14.288518"
       x="1.3395486"
       y="1.3689886" />
    <path
       style="fill:#008000;stroke:#000000;stroke-width:0.30000001;stroke-linecap:butt;stroke-linejoin:round;stroke-miterlimit:4;stroke-opacity:1;stroke-dasharray:none"
       d="M 14.199215,5.0304215 C 13.457661,3.990036 12.377066,3.1954806 11.162905,2.7978405 10.387727,2.5439682 9.5673587,2.4496429 8.7517175,2.4406275 8.2455032,2.4350322 7.7356224,2.4622163 7.2433241,2.5802274 6.7510259,2.6982384 6.2748568,2.9108258 5.8940138,3.2443567 5.4531242,3.6304746 5.1524945,4.1797592 5.0902847,4.7625118 5.014018,5.4769428 5.2871198,6.1829897 5.6261041,6.8164863 5.8940724,7.3172677 6.2214532,7.8094949 6.7013152,8.1133395 6.9412462,8.2652618 7.2168305,8.3657313 7.5004102,8.3808907 7.78399,8.3960501 8.0751827,8.3225843 8.3052013,8.1560349 8.4636786,8.0412864 8.5897924,7.8860074 8.6883903,7.7170082 8.7869881,7.548009 8.859225,7.3649902 8.9233454,7.1801366 9.0515861,6.8104294 9.1525143,6.4226957 9.3768402,6.1020604 9.5526292,5.8508001 9.8006986,5.6508959 10.08319,5.5315967 c 0.282491,-0.1192993 0.59846,-0.157734 0.901472,-0.1106455 0.303012,0.047088 0.592174,0.1794351 0.826522,0.3772087 0.234348,0.1977736 0.413292,0.4603153 0.512663,0.7504167 0.09929,0.2898731 0.119177,0.6037013 0.08072,0.9076857 -0.03846,0.3039845 -0.133941,0.5988001 -0.259325,0.8783791 -0.28933,0.6451431 -0.747507,1.2209263 -1.339549,1.6074583 -0.234086,0.1528293 -0.486679,0.2752683 -0.724146,0.4227883 -0.2374681,0.14752 -0.4637756,0.32468 -0.6154026,0.559547 -0.1469693,0.227652 -0.2166386,0.50425 -0.1950451,0.774359 0.021594,0.27011 0.1343217,0.532126 0.3155919,0.733538 0.1812702,0.201411 0.4300058,0.341021 0.6963558,0.390849 0.266351,0.04983 0.548734,0.0096 0.790556,-0.112681 l 2.679097,0 c -0.04411,-0.612958 0.08075,-1.237221 0.357213,-1.786065 0.150628,-0.29903 0.344095,-0.574076 0.515533,-0.861681 0.171438,-0.2876051 0.322981,-0.5940271 0.377499,-0.9243835 0.07939,-0.4810765 -0.04628,-0.9703273 -0.177167,-1.4400144 -0.130888,-0.469687 -0.256489,-0.940929 -0.358652,-1.4176892 l -0.26791,-1.2502454"
       id="path3019"
       inkscape:path-effect="#path-effect3021"
       inkscape:original-d="m 14.199215,5.0304215 c -1.339548,-1.3395486 -2.321884,-2.232581 -3.03631,-2.232581 -0.714426,0 -1.6074583,-0.6251227 -2.4111875,-0.357213 C 7.9479884,2.7085373 6.697743,2.5299308 5.8940138,3.2443567 5.0902847,3.9587826 5.0902847,4.1373891 5.0902847,4.7625118 c 0,0.6251227 -0.4465162,1.0716389 0.5358194,2.0539745 0.9823357,0.9823356 2.3218843,1.6967616 2.6790972,1.3395486 0.357213,-0.357213 0.089303,-2.1432778 1.0716389,-2.0539745 0.9823358,0.089303 2.8577038,-0.089303 2.9470068,0.4465162 0.0893,0.5358194 0,1.1609421 -0.178606,1.7860648 -0.178607,0.6251227 0,1.2502453 -1.339549,1.6074583 C 9.4661434,10.299313 8.3052013,9.2276738 9.4661434,10.924435 10.627086,12.621197 11.073602,12.7105 11.073602,12.7105 l 2.679097,0 c 0,0 -0.0893,-0.446516 0.357213,-1.786065 0.446516,-1.3395483 1.071639,-0.446516 0.893032,-1.7860645 C 14.824338,7.7988219 14.467125,6.2806669 14.467125,6.2806669 z"
       inkscape:connector-curvature="0" />
    <path
       style="fill:#008000;stroke:#000000;stroke-width:0.30000001;stroke-linecap:butt;stroke-linejoin:round;stroke-miterlimit:4;stroke-opacity:1;stroke-dasharray:none"
       d="M 5.5802131,10.338347 2.986251,9.601092 c -0.4859061,0.3696895 -0.853667,0.892312 -1.0375848,1.474506 -0.1632185,0.51667 -0.1805354,1.086503 0,1.597379 0.1601661,0.453236 0.4745547,0.849758 0.8772221,1.112313 0.4026674,0.262555 0.8909919,0.390212 1.3708784,0.362196 0.5874143,-0.03429 1.1577336,-0.304452 1.5563772,-0.737251 L 6.5313323,11.689973 5.5802131,10.338347"
       id="path3042"
       inkscape:path-effect="#path-effect3044"
       inkscape:original-d="M 5.5802131,10.338347 2.986251,9.601092 c 0,0 -0.9511191,0.491502 -1.0375848,1.474506 -0.086465,0.983003 -0.6052573,0.983003 0,1.597379 0.6052578,0.614381 1.9022386,1.474509 2.2481005,1.474509 0.3458616,0 1.5563772,-0.737251 1.5563772,-0.737251 l 0.7781884,-1.720262 z"
       inkscape:connector-curvature="0" />
    <g
       id="g3920"
       transform="translate(4,0)">
      <path
         inkscape:connector-curvature="0"
         d="m 6.0202684,15.978674 c -0.1218387,0.240438 -0.2511562,0.47413 -0.4075702,0.694099 -0.15204,0.20045 -0.3269444,0.381257 -0.4775779,0.582832 -0.1064651,0.187509 -0.216136,0.370403 -0.3486477,0.540917 -0.1862182,0.229005 -0.3490055,0.475866 -0.513392,0.720674 -0.1550627,0.235389 -0.3309075,0.457159 -0.4490848,0.714187 -0.093141,0.210879 -0.1523432,0.431965 -0.1835288,0.659737 -0.023501,0.20474 -0.021395,0.411279 -0.020954,0.617037 -3.108e-4,0.24107 -0.00232,0.482136 -0.00325,0.723211 7.769e-4,0.242414 -0.00451,0.484454 0.02474,0.7254 0.047376,0.202558 0.1028187,0.402149 0.1335743,0.6082 0.027673,0.189505 0.122177,0.355185 0.2139434,0.519547 0.1049411,0.177163 0.2265938,0.344497 0.3649899,0.496871 0.1509095,0.174429 0.3750796,0.251009 0.5874695,0.324452 0.3142414,0.112526 0.6373906,0.196741 0.9662624,0.252985 0.2280353,0.03731 0.4590545,0.04234 0.6895057,0.04556 0.246381,0.0083 0.4906874,0.04972 0.7367888,0.06932 0.2011523,0.01502 0.4029155,0.01566 0.6044904,0.01806 0.2193708,0.0011 0.4387379,0.0012 0.6581101,3.97e-4 0.2068771,-0.0017 0.4137512,-2.79e-4 0.62063,-4.73e-4 0.2324093,0.01347 0.4608881,-0.03313 0.6909724,-0.05912 0.2389581,-0.02208 0.4788901,-0.02565 0.7186581,-0.02906 0.20154,-0.0036 0.399006,-0.05256 0.599656,-0.07352 0.145404,-0.002 0.281864,-0.01807 0.42167,-0.0551 0,0 -1.050317,0.798616 -1.050317,0.798616 l 0,0 c -0.140914,0.02529 -0.284228,0.02312 -0.426126,0.04177 -0.2002429,0.02603 -0.3996734,0.06676 -0.6026796,0.05924 -0.2373264,0.0039 -0.4749696,0.01145 -0.7108648,0.03958 -0.2334111,0.02767 -0.4661114,0.06053 -0.7020007,0.04852 -0.2066982,-1.1e-4 -0.41339,0.0014 -0.6200884,2.01e-4 -0.2200787,-4.2e-4 -0.4401524,7.45e-4 -0.6602274,-5.56e-4 -0.2028083,-0.0014 -0.4056413,-0.0087 -0.6075436,-0.02896 -0.24401,-0.02491 -0.4876919,-0.06411 -0.7335898,-0.06 C 5.3021148,24.967961 5.070296,24.949149 4.8424011,24.902275 4.5110245,24.832747 4.1835022,24.744688 3.8635056,24.633619 3.6290587,24.547599 3.3928791,24.460855 3.2300086,24.261267 3.0877681,24.099831 2.9632728,23.922267 2.8507319,23.739076 2.7515027,23.560462 2.6476651,23.381847 2.6113492,23.177529 c -0.025151,-0.207803 -0.07519,-0.409716 -0.128856,-0.611836 -0.033008,-0.247292 -0.033355,-0.493273 -0.026881,-0.742742 -0.0016,-0.239466 -0.00476,-0.478899 -0.00666,-0.718355 4.206e-4,-0.210695 9.527e-4,-0.421568 0.014262,-0.631931 0.027117,-0.23909 0.081009,-0.472768 0.1770703,-0.694473 0.0984,-0.276145 0.2776693,-0.502087 0.4446913,-0.740492 0.1597483,-0.246386 0.3239369,-0.490378 0.4971683,-0.727426 0.1380221,-0.163712 0.2639662,-0.335498 0.3514482,-0.532412 0.1408295,-0.213011 0.3188699,-0.394196 0.4830494,-0.588828 0.1595017,-0.206595 0.3109715,-0.424209 0.393992,-0.674232 0,0 1.2096348,-0.536128 1.2096348,-0.536128 z"
         id="path3825"
         style="fill:#4d4d4d;stroke-width:0.30000001;stroke-linejoin:round;stroke-miterlimit:4;stroke-dasharray:none" />
      <g
         id="g3913">
        <path
           style="fill:#4d4d4d;stroke-width:0.30000001;stroke-linejoin:round;stroke-miterlimit:4;stroke-dasharray:none"
           id="path3827"
           d="m 9.0873595,22.454567 c 0.1918003,0.102408 0.3962171,0.185744 0.6035176,0.251861 0.1977581,0.07375 0.3944949,0.148317 0.5764429,0.256218 0.170921,0.102382 0.34921,0.188734 0.533636,0.263876 0.174953,0.04499 0.329448,0.139318 0.496517,0.203664 0.14723,0.08211 0.276921,0.185438 0.382428,0.316911 0.119128,0.143939 0.291639,0.222809 0.450725,0.313319 0.161022,0.101748 0.352628,0.10192 0.528887,0.153799 0,0 -1.085435,0.747381 -1.085435,0.747381 l 0,0 c -0.188453,-0.04125 -0.376683,-0.08122 -0.543089,-0.185419 -0.173657,-0.09687 -0.354026,-0.193926 -0.481217,-0.351154 C 10.453858,24.313124 10.33408,24.22553 10.200957,24.162018 10.038383,24.088212 9.8777224,24.011465 9.7076433,23.955361 9.5224672,23.872841 9.3418634,23.78277 9.1677602,23.67857 8.987569,23.583342 8.7969856,23.510881 8.6056557,23.441249 8.3969406,23.364411 8.1931516,23.275141 7.9870782,23.191694 c 0,0 1.1002813,-0.737127 1.1002813,-0.737127 z"
           inkscape:connector-curvature="0" />
        <path
           style="fill:#4d4d4d;stroke-width:0.30000001;stroke-linejoin:round;stroke-miterlimit:4;stroke-dasharray:none"
           id="path3829"
           d="m 9.4335497,25.25136 c 0.5275849,-0.12573 1.4125583,-0.710838 -0.5400218,0.404538 0.1257018,-0.09461 0.2401234,-0.203215 0.3638955,-0.300724 0.3706933,-0.343022 0.8663216,-0.529487 1.3021516,-0.765594 0.03195,-0.01731 0.212498,-0.04937 0.253456,-0.05887 0.217681,-0.02986 0.430048,-0.08555 0.647337,-0.119034 0.157069,-0.0393 0.281764,-0.136361 0.438041,-0.177238 0.16313,-0.03215 0.330192,-0.03273 0.495812,-0.03464 0.06805,0.03339 0.281051,0.02508 0.328996,0.08127 0.01846,0.02164 0.02801,0.04951 0.04202,0.07427 0.0015,0.0199 0.0082,0.04009 0.0045,0.05971 -0.0028,0.01504 -0.0099,0.03193 -0.02304,0.03967 -0.391483,0.229798 -0.78684,0.453121 -1.185705,0.669854 -0.01813,0.0098 -0.04176,0.0015 -0.0614,0.0078 -0.03934,0.01269 -0.074,0.03719 -0.112626,0.05192 0.360712,-0.204444 1.424754,-0.846836 1.082136,-0.613333 -0.377788,0.257474 -0.790237,0.460033 -1.187977,0.685467 -0.01995,0.01131 -0.08414,0.03589 -0.06434,0.02433 0.357293,-0.208524 1.425897,-0.838887 1.077588,-0.615682 -0.02113,0.01354 -2.9670943,1.712911 -0.111356,0.06528 -0.104849,0.08294 -0.179843,0.195643 -0.276085,0.288585 -1.09487,0.817052 -0.864168,0.576429 -1.581533,0.796044 -0.15851,0.04146 -0.323018,0.04662 -0.4858744,0.05132 -0.1756646,0.01078 -0.3540053,-0.01525 -0.5271118,0.01905 -0.1712063,0.01381 -0.3271419,0.0743 -0.4909889,0.11763 -0.4497798,0.09229 -1.2322486,0.714215 0.8950113,-0.556228 0.00734,-0.0044 -0.0089,-0.01465 -0.012337,-0.02247 -0.017741,-0.04034 -0.034105,-0.08127 -0.051158,-0.121905 0.054933,-0.0627 -0.00842,-6.04e-4 0.083143,-0.04971 0.1063795,-0.05705 0.138204,-0.08563 0.263305,-0.11873 0.1614118,-0.02192 0.3161988,-0.03775 0.4639398,-0.110419 0.157822,-0.07073 0.329624,-0.08924 0.500123,-0.101372 0.173005,-0.02025 0.35211,0.01544 0.521502,-0.02655 0.02425,-0.006 0.0485,-0.01197 0.07274,-0.01795 0,0 -1.052253,0.79611 -1.052253,0.79611 l 0,0 c -0.02553,0.0038 -0.05106,0.0076 -0.0766,0.01136 -0.174242,0.0065 -0.349105,0.0022 -0.5227073,0.02155 -0.166246,0.02185 -0.32706,0.06151 -0.4806187,0.130612 -0.1544435,0.0447 -0.3146472,0.05527 -0.4671571,0.106711 C 8.8341321,25.996962 8.7147124,26.087949 8.576616,26.09045 8.545494,26.05033 8.509922,26.0133 8.483249,25.970101 c -0.00659,-0.01067 -0.014722,-0.03086 -0.00402,-0.0374 0.6570513,-0.40124 0.84233,-0.600239 1.3875872,-0.734291 0.1636728,-0.04963 0.3309968,-0.07884 0.5009058,-0.099 0.177776,-0.0084 0.355895,-0.0022 0.533672,-0.01216 0.15874,-0.01022 0.317282,-0.02721 0.468969,-0.07823 0.07563,-0.02144 0.153923,-0.03296 0.228826,-0.05663 0.395023,-0.124861 1.189507,-0.893072 -0.91764,0.557281 0.115692,-0.07246 0.20087,-0.175806 0.272652,-0.29026 0.393294,-0.232987 0.810329,-0.4299 1.179881,-0.698962 0.334121,-0.243266 -1.437257,0.816577 -1.073061,0.621189 0.403142,-0.216282 0.793264,-0.456002 1.189955,-0.683901 0.91167,-0.523757 -3.7908023,2.183741 0.176105,-0.08999 0.550342,-0.220073 0.182262,-0.08975 -0.919755,0.570311 -0.01029,0.0062 0.02482,-0.0031 0.03596,0.0013 0.01262,0.005 0.02112,0.0171 0.03168,0.02565 0.01388,0.019 0.03238,0.03537 0.04165,0.057 0.0027,0.0062 -0.01297,-0.0037 -0.0195,-0.0054 -0.087,-0.02221 -0.175991,-0.04142 -0.266231,-0.04031 -0.160055,0.006 -0.322889,0.01249 -0.474719,0.06886 -0.145057,0.06198 -0.283211,0.13946 -0.444036,0.154946 -0.214856,0.0389 -0.4290583,0.08301 -0.6423441,0.129316 -0.030071,0.0085 -0.1502283,0.04173 -0.1816617,0.05271 -0.022155,0.0077 -0.085202,0.03899 -0.064995,0.02706 1.8432518,-1.088386 1.3407908,-0.79083 0.9569168,-0.554852 -0.11121,0.11908 -0.261244,0.193743 -0.362598,0.324151 -0.6078438,0.353837 -1.0776031,0.736531 -1.740824,0.867729 0,0 1.0568714,-0.794856 1.0568714,-0.794856 z"
           inkscape:connector-curvature="0" />
        <path
           style="fill:#4d4d4d;stroke-width:0.30000001;stroke-linejoin:round;stroke-miterlimit:4;stroke-dasharray:none"
           id="path3831"
           d="m 11.09675,24.794022 c -0.125352,-0.130525 -0.283433,-0.221885 -0.420513,-0.341492 -0.1487,-0.10754 -0.312086,-0.193883 -0.472163,-0.283316 -0.145166,-0.06924 -0.2746137,-0.157845 -0.4289006,-0.207343 -0.1839536,-0.0541 -0.3658002,-0.105988 -0.5565485,-0.1307 -0.1200548,-0.01062 -0.060073,-0.0063 -0.1799446,-0.0131 0,0 1.0702217,-0.764938 1.0702217,-0.764938 l 0,0 c 0.123375,0.01209 0.0616,0.0048 0.185328,0.0218 0.194081,0.03545 0.382307,0.09235 0.570442,0.151236 0.155746,0.06109 0.297031,0.147346 0.444385,0.225787 0.16277,0.09789 0.334702,0.182991 0.481144,0.305415 0.147748,0.121995 0.314945,0.219755 0.446404,0.360201 0,0 -1.139855,0.676446 -1.139855,0.676446 z"
           inkscape:connector-curvature="0" />
        <path
           style="fill:#4d4d4d;stroke-width:0.30000001;stroke-linejoin:round;stroke-miterlimit:4;stroke-dasharray:none"
           id="path3833"
           d="m 9.3309925,26.248725 c -0.1798678,0.01475 -0.3300581,0.119506 -0.4949788,0.18144 -0.1274198,0.09039 -0.2813575,0.129227 -0.4282478,0.176658 -0.084226,0.02526 -0.171288,0.03627 -0.2581678,0.04732 0,0 1.0522921,-0.791208 1.0522921,-0.791208 l 0,0 c 0.08309,-0.01708 0.1660463,-0.03488 0.2454289,-0.06573 0.1449468,-0.05375 0.2866488,-0.109837 0.4233835,-0.182394 0.1662924,-0.07487 0.3349364,-0.139423 0.5168024,-0.166022 0,0 -1.0565125,0.799933 -1.0565125,0.799933 z"
           inkscape:connector-curvature="0" />
        <path
           style="fill:#4d4d4d;stroke-width:0.30000001;stroke-linejoin:round;stroke-miterlimit:4;stroke-dasharray:none"
           id="path3835"
           d="m 9.0577462,25.764602 c 0.1225513,-0.03207 0.2331017,-0.09722 0.3396768,-0.163355 0.025834,-0.01603 0.1056021,-0.06032 0.079247,-0.04516 -0.3521982,0.202581 -0.7045176,0.404951 -1.0567763,0.607426 0.1249998,-0.08966 0.2324205,-0.200399 0.3242798,-0.323162 0,0 1.2034225,-0.528468 1.2034225,-0.528468 l 0,0 C 9.8683712,25.452566 9.7641551,25.5695 9.6449607,25.678364 9.1087578,25.99582 8.5998895,26.3614 8.0166915,26.583248 c 0,0 1.0410547,-0.818646 1.0410547,-0.818646 z"
           inkscape:connector-curvature="0" />
      </g>
    </g>
    <path
       style="fill:none;stroke:#000000;stroke-width:0.8;stroke-linecap:butt;stroke-linejoin:round;stroke-miterlimit:4;stroke-opacity:1;stroke-dasharray:none"
       d="m 29.633414,19.475776 c -0.741554,-1.040386 -1.822149,-1.834941 -3.03631,-2.232581 -0.775178,-0.253872 -1.595546,-0.348198 -2.411187,-0.357213 -0.506214,-0.0056 -1.016095,0.02159 -1.508394,0.1396 -0.492298,0.118011 -0.968467,0.330598 -1.34931,0.664129 -0.44089,0.386118 -0.741519,0.935402 -0.803729,1.518155 -0.07627,0.714431 0.196835,1.420478 0.535819,2.053975 0.267968,0.500781 0.595349,0.993008 1.075211,1.296853 0.239931,0.151922 0.515515,0.252392 0.799095,0.267551 0.28358,0.01516 0.574772,-0.05831 0.804791,-0.224856 0.158477,-0.114749 0.284591,-0.270027 0.383189,-0.439027 0.0986,-0.168999 0.170835,-0.352017 0.234955,-0.536871 0.128241,-0.369707 0.229169,-0.757441 0.453495,-1.078076 0.175789,-0.25126 0.423858,-0.451164 0.70635,-0.570464 0.282491,-0.119299 0.59846,-0.157734 0.901472,-0.110645 0.303012,0.04709 0.592174,0.179435 0.826522,0.377208 0.234348,0.197774 0.413292,0.460316 0.512663,0.750417 0.09929,0.289873 0.119177,0.603701 0.08072,0.907686 -0.03846,0.303984 -0.133941,0.5988 -0.259325,0.878379 -0.28933,0.645143 -0.747507,1.220926 -1.339549,1.607458 -0.234086,0.15283 -0.486678,0.275268 -0.724146,0.422788 -0.237468,0.14752 -0.463775,0.32468 -0.615402,0.559547 -0.146969,0.227652 -0.216639,0.50425 -0.195045,0.774359 0.02159,0.27011 0.134321,0.532126 0.315592,0.733537 0.18127,0.201412 0.430005,0.341022 0.696356,0.39085 0.26635,0.04983 0.548733,0.0096 0.790555,-0.112681 l 2.679097,0 c -0.0441,-0.612958 0.08075,-1.237221 0.357213,-1.786065 0.150628,-0.29903 0.344095,-0.574076 0.515533,-0.861681 0.171439,-0.287605 0.322982,-0.594027 0.3775,-0.924383 0.07939,-0.481077 -0.04628,-0.970328 -0.177167,-1.440015 -0.130889,-0.469687 -0.25649,-0.940929 -0.358653,-1.417689 l -0.26791,-1.250245"
       id="path3019-7"
       inkscape:path-effect="#path-effect3021-0"
       inkscape:original-d="m 29.633414,19.475776 c -1.339548,-1.339549 -2.321884,-2.232581 -3.03631,-2.232581 -0.714426,0 -1.607458,-0.625123 -2.411187,-0.357213 -0.803729,0.26791 -2.053975,0.0893 -2.857704,0.803729 -0.803729,0.714426 -0.803729,0.893032 -0.803729,1.518155 0,0.625123 -0.446516,1.071639 0.535819,2.053975 0.982336,0.982335 2.321885,1.696761 2.679097,1.339548 0.357213,-0.357213 0.0893,-2.143278 1.071639,-2.053974 0.982336,0.0893 2.857704,-0.0893 2.947007,0.446516 0.0893,0.535819 0,1.160942 -0.178606,1.786065 -0.178607,0.625122 0,1.250245 -1.339549,1.607458 -1.339548,0.357213 -2.500491,-0.714426 -1.339548,0.982335 1.160942,1.696762 1.607458,1.786065 1.607458,1.786065 l 2.679097,0 c 0,0 -0.0893,-0.446516 0.357213,-1.786065 0.446516,-1.339548 1.07164,-0.446516 0.893033,-1.786064 -0.178607,-1.339549 -0.53582,-2.857704 -0.53582,-2.857704 z"
       inkscape:connector-curvature="0" />
    <path
       style="fill:none;stroke:#000000;stroke-width:0.8;stroke-linecap:butt;stroke-linejoin:round;stroke-miterlimit:4;stroke-opacity:1;stroke-dasharray:none"
       d="m 21.319331,25.818391 -2.593962,-0.737255 c -0.485906,0.36969 -0.853666,0.892313 -1.037584,1.474506 -0.163218,0.51667 -0.180535,1.086503 0,1.597379 0.160166,0.453236 0.474555,0.849758 0.877222,1.112313 0.402667,0.262555 0.890992,0.390212 1.370878,0.362196 0.587414,-0.03429 1.157734,-0.304452 1.556377,-0.737251 l 0.778189,-1.720262 -0.95112,-1.351626"
       id="path3042-5"
       inkscape:path-effect="#path-effect3044-0"
       inkscape:original-d="m 21.319331,25.818391 -2.593962,-0.737255 c 0,0 -0.951119,0.491502 -1.037584,1.474506 -0.08647,0.983003 -0.605258,0.983003 0,1.597379 0.605257,0.614381 1.902238,1.474509 2.2481,1.474509 0.345862,0 1.556377,-0.737251 1.556377,-0.737251 l 0.778189,-1.720262 z"
       inkscape:connector-curvature="0" />
    <text
       xml:space="preserve"
       style="font-size:5.98047495px;font-style:normal;font-weight:normal;line-height:125%;letter-spacing:0px;word-spacing:0px;fill:#000000;fill-opacity:1;stroke:none;font-family:Sans"
       x="2.4093332"
       y="36.116585"
       id="text3909"
       sodipodi:linespacing="125%"
       transform="scale(1.3104382,0.76310351)"><tspan
         sodipodi:role="line"
         id="tspan3911"
         x="2.4093332"
         y="36.116585">x</tspan></text>
  </g>
</svg>
